<svg width="11" height="14" viewBox="0 0 11 14" fill="none" xmlns="http://www.w3.org/2000/svg">
<path d="M10.5 13.0001C10.5 13.1327 10.4473 13.2599 10.3536 13.3536C10.2598 13.4474 10.1326 13.5001 10 13.5001H5.5C4.04131 13.5001 2.64236 12.9206 1.61091 11.8892C0.579463 10.8577 0 9.45878 0 8.00009C0 6.5414 0.579463 5.14246 1.61091 4.11101C2.64236 3.07956 4.04131 2.50009 5.5 2.50009H8.795L7.145 0.855093C7.05085 0.760941 6.99795 0.633244 6.99795 0.500093C6.99795 0.366942 7.05085 0.239245 7.145 0.145093C7.23915 0.0509408 7.36685 -0.00195313 7.5 -0.00195312C7.63315 -0.00195312 7.76085 0.0509408 7.855 0.145093L10.355 2.64509C10.4019 2.69157 10.4391 2.74687 10.4644 2.8078C10.4898 2.86873 10.5029 2.93409 10.5029 3.00009C10.5029 3.0661 10.4898 3.13145 10.4644 3.19238C10.4391 3.25331 10.4019 3.30861 10.355 3.35509L7.855 5.85509C7.80852 5.90196 7.75322 5.93915 7.69229 5.96454C7.63136 5.98992 7.56601 6.00299 7.5 6.00299C7.43399 6.00299 7.36864 5.98992 7.30771 5.96454C7.24678 5.93915 7.19148 5.90196 7.145 5.85509C7.09814 5.80861 7.06094 5.75331 7.03555 5.69238C7.01017 5.63145 6.9971 5.5661 6.9971 5.50009C6.9971 5.43409 7.01017 5.36873 7.03555 5.3078C7.06094 5.24687 7.09814 5.19157 7.145 5.14509L8.795 3.50009H5.5C4.30653 3.50009 3.16193 3.9742 2.31802 4.81811C1.47411 5.66203 1 6.80662 1 8.00009C1 9.19357 1.47411 10.3382 2.31802 11.1821C3.16193 12.026 4.30653 12.5001 5.5 12.5001H10C10.1326 12.5001 10.2598 12.5528 10.3536 12.6465C10.4473 12.7403 10.5 12.8675 10.5 13.0001Z" fill="#2C353A"/>
</svg>
