<svg width="11" height="14" viewBox="0 0 11 14" fill="none" xmlns="http://www.w3.org/2000/svg">
<path d="M10.5029 8C10.5029 6.54131 9.92344 5.14236 8.89199 4.11091C7.86054 3.07946 6.46159 2.5 5.0029 2.5H1.7079L3.3579 0.855C3.40476 0.808518 3.44196 0.753218 3.46734 0.692288C3.49273 0.631359 3.5058 0.566006 3.5058 0.5C3.5058 0.433994 3.49273 0.368641 3.46734 0.307712C3.44196 0.246782 3.40476 0.191482 3.3579 0.145C3.31142 0.0981359 3.25612 0.0609379 3.19519 0.0355539C3.13426 0.01017 3.06891 -0.00289917 3.0029 -0.00289917C2.93689 -0.00289917 2.87154 0.01017 2.81061 0.0355539C2.74968 0.0609379 2.69438 0.0981359 2.6479 0.145L0.147899 2.645C0.101035 2.69148 0.0638379 2.74678 0.0384536 2.80771C0.0130692 2.86864 0 2.93399 0 3C0 3.06601 0.0130692 3.13136 0.0384536 3.19229C0.0638379 3.25322 0.101035 3.30852 0.147899 3.355L2.6479 5.855C2.74205 5.94915 2.86975 6.00205 3.0029 6.00205C3.13605 6.00205 3.26375 5.94915 3.3579 5.855C3.45205 5.76085 3.50494 5.63315 3.50494 5.5C3.50494 5.36685 3.45205 5.23915 3.3579 5.145L1.7079 3.5H5.0029C6.19637 3.5 7.34097 3.97411 8.18488 4.81802C9.02879 5.66193 9.5029 6.80653 9.5029 8C9.5029 9.19347 9.02879 10.3381 8.18488 11.182C7.34097 12.0259 6.19637 12.5 5.0029 12.5H0.502899C0.370291 12.5 0.243114 12.5527 0.149346 12.6464C0.0555777 12.7402 0.00289917 12.8674 0.00289917 13C0.00289917 13.1326 0.0555777 13.2598 0.149346 13.3536C0.243114 13.4473 0.370291 13.5 0.502899 13.5H5.0029C6.46159 13.5 7.86054 12.9205 8.89199 11.8891C9.92344 10.8576 10.5029 9.45869 10.5029 8Z" fill="#2C353A"/>
</svg>
