<svg width="12" height="12" viewBox="0 0 12 12" fill="none" xmlns="http://www.w3.org/2000/svg">
<path d="M6 2.00049C6.27631 2.00049 6.49991 2.22444 6.5 2.50049C6.5 2.77661 6.27636 3.00049 6 3.00049H1V11.0005H9V6.00049C9.00009 5.72444 9.22369 5.50049 9.5 5.50049C9.77631 5.50049 9.99991 5.72444 10 6.00049V11.5005C10 11.7766 9.77637 12.0005 9.5 12.0005H0.5C0.223635 12.0005 0 11.7766 0 11.5005V2.50049C9.29207e-05 2.22444 0.223692 2.00049 0.5 2.00049H6ZM11.1455 0.145996C11.3405 -0.048919 11.6605 -0.0489589 11.8555 0.145996C12.05 0.34101 12.0502 0.661082 11.8555 0.855957L10.21 2.50049L11.8555 4.146C12.05 4.34101 12.0502 4.66108 11.8555 4.85596C11.7555 4.95096 11.63 5.00049 11.5 5.00049C11.3702 5.00048 11.2454 4.95071 11.1455 4.85596L9.5 3.21045L7.85547 4.85596C7.75549 4.95096 7.63001 5.00049 7.5 5.00049C7.37017 5.00048 7.24541 4.95071 7.14551 4.85596C6.9505 4.66095 6.9505 4.341 7.14551 4.146L8.79004 2.50049L7.14551 0.855957C6.9505 0.660952 6.9505 0.341001 7.14551 0.145996C7.34046 -0.0489193 7.66054 -0.0489591 7.85547 0.145996L9.5 1.79053L11.1455 0.145996Z" fill="#2C353A"/>
</svg>
