<svg width="10" height="12" viewBox="0 0 10 12" fill="none" xmlns="http://www.w3.org/2000/svg">
<path d="M5.5 2C5.63256 2.00095 5.76015 2.0524 5.85547 2.14453L9.85547 6.14453C9.94758 6.23986 9.99903 6.36744 10 6.5V11.5C9.99962 11.6325 9.9472 11.7598 9.85352 11.8535C9.75983 11.9472 9.63249 11.9996 9.5 12H2.5C2.36751 11.9996 2.24017 11.9472 2.14648 11.8535C2.0528 11.7598 2.00038 11.6325 2 11.5V2.5C2.00038 2.36751 2.0528 2.24017 2.14648 2.14648C2.24017 2.0528 2.36751 2.00038 2.5 2H5.5ZM3 3V11H9V6.98535L5.5 7C5.36718 7.00037 5.23911 6.94873 5.14453 6.85547C5.05242 6.76014 5.00097 6.63256 5 6.5V3H3ZM4 0C4.13261 0 4.25975 0.0527162 4.35352 0.146484C4.44728 0.240253 4.5 0.367392 4.5 0.5C4.5 0.632608 4.44728 0.759747 4.35352 0.853516C4.25975 0.947284 4.13261 1 4 1H1V9.5C1 9.63261 0.947284 9.75975 0.853516 9.85352C0.759747 9.94728 0.632608 10 0.5 10C0.367392 10 0.240253 9.94728 0.146484 9.85352C0.0527163 9.75975 0 9.63261 0 9.5V0.5C0 0.367392 0.0527162 0.240253 0.146484 0.146484C0.240253 0.0527162 0.367392 0 0.5 0H4ZM6 6L8.28027 5.98535L6 3.70508V6Z" fill="#2C353A"/>
</svg>
