<svg width="12" height="13" viewBox="0 0 12 13" fill="none" xmlns="http://www.w3.org/2000/svg">
<path d="M11.5 9C11.6326 9 11.7597 9.05272 11.8535 9.14648C11.9473 9.24025 12 9.3674 12 9.5V12.5C12 12.6326 11.9473 12.7598 11.8535 12.8535C11.7597 12.9473 11.6326 13 11.5 13H0.5C0.367399 13 0.240251 12.9473 0.146484 12.8535C0.0527228 12.7598 8.34754e-06 12.6326 0 12.5V9.5C1.15923e-08 9.3674 0.0527251 9.24025 0.146484 9.14648C0.240252 9.05272 0.367392 9 0.5 9C0.632607 9 0.759748 9.05272 0.853516 9.14648C0.947274 9.24025 1 9.3674 1 9.5V12H11V9.5C11 9.3674 11.0527 9.24025 11.1465 9.14648C11.2403 9.05272 11.3674 9 11.5 9ZM6 0C6.06599 0 6.13146 0.0127126 6.19238 0.0380859C6.25331 0.0634703 6.30899 0.100597 6.35547 0.147461L10.3555 4.14746C10.4023 4.19394 10.4395 4.24963 10.4648 4.31055C10.4902 4.37144 10.5029 4.43696 10.5029 4.50293C10.5029 4.56891 10.4902 4.6344 10.4648 4.69531C10.4395 4.75604 10.4021 4.81103 10.3555 4.85742C10.309 4.90429 10.2533 4.94239 10.1924 4.96777C10.1315 4.99314 10.066 5.00586 10 5.00586C9.93402 5.00586 9.86852 4.99314 9.80762 4.96777C9.74669 4.94239 9.69101 4.90429 9.64453 4.85742L6.5 1.70801V10.0029C6.49998 10.1355 6.44727 10.2627 6.35352 10.3564C6.25975 10.4502 6.13259 10.5029 6 10.5029C5.86741 10.5029 5.74025 10.4502 5.64648 10.3564C5.55273 10.2627 5.50002 10.1355 5.5 10.0029V1.70801L2.35547 4.85742C2.26132 4.95157 2.13315 5.00488 2 5.00488C1.86685 5.00488 1.73868 4.95157 1.64453 4.85742C1.55068 4.76333 1.49806 4.63584 1.49805 4.50293C1.49805 4.36979 1.5504 4.24161 1.64453 4.14746L5.64453 0.147461C5.69101 0.100597 5.74669 0.0634703 5.80762 0.0380859C5.86854 0.0127122 5.93401 1.416e-07 6 0Z" fill="white"/>
</svg>
