<svg width="12" height="12" viewBox="0 0 12 12" fill="none" xmlns="http://www.w3.org/2000/svg">
<g clip-path="url(#clip0_3149_3408)">
<path d="M12 1.35938C12 4.42219 12 7.485 12 10.6406C11.8157 10.4827 11.8157 10.4827 11.7496 10.4203C11.7352 10.4068 11.7209 10.3932 11.7061 10.3793C11.6914 10.3655 11.6767 10.3517 11.6616 10.3374C11.5279 10.2116 11.5279 10.2116 11.3906 10.0898C11.2832 9.99745 11.1807 9.8998 11.0773 9.80293C10.9759 9.70799 10.8735 9.61444 10.7699 9.52185C10.6999 9.45882 10.6307 9.39501 10.5615 9.33105C10.5487 9.31917 10.5358 9.30728 10.5226 9.29503C10.5097 9.28314 10.4969 9.27125 10.4836 9.259C10.3264 9.1136 10.1687 8.96867 10.0093 8.82568C9.89285 8.72118 9.77797 8.61505 9.66312 8.50882C9.55564 8.40942 9.44765 8.3106 9.33967 8.21174C9.30403 8.17908 9.26842 8.14639 9.23282 8.11368C9.12491 8.01456 9.01681 7.91569 8.90772 7.81787C8.79129 7.71336 8.6764 7.60724 8.56155 7.50101C8.48865 7.43358 8.41551 7.3664 8.34229 7.29932C8.33081 7.28879 8.31934 7.27827 8.30752 7.26743C8.24891 7.21369 8.19017 7.16009 8.13126 7.10669C8.06101 7.04296 7.99143 6.97854 7.92188 6.91406C7.88979 6.88515 7.88979 6.88515 7.85706 6.85565C7.64926 6.66092 7.50617 6.41581 7.49213 6.1257C7.48802 5.89772 7.49162 5.69327 7.59375 5.48438C7.60324 5.46422 7.61272 5.44407 7.6225 5.42331C7.74982 5.19283 7.96261 5.02502 8.15625 4.85156C8.18956 4.82138 8.18956 4.82138 8.22354 4.79059C8.25996 4.75769 8.29649 4.72491 8.33313 4.69226C8.40372 4.62886 8.47336 4.56447 8.54297 4.5C8.63226 4.41733 8.72188 4.33511 8.8125 4.25391C8.92848 4.14993 9.04285 4.04427 9.1572 3.93851C9.26467 3.83911 9.37267 3.74028 9.48064 3.64143C9.51629 3.60877 9.55189 3.57607 9.58749 3.54337C9.69541 3.44425 9.8035 3.34537 9.9126 3.24756C10.029 3.14305 10.1439 3.03693 10.2588 2.93069C10.3663 2.83123 10.4744 2.73233 10.5824 2.63341C10.6292 2.5906 10.6759 2.54776 10.7226 2.50492C10.746 2.48346 10.7695 2.46199 10.7929 2.44053C10.8521 2.38627 10.9113 2.33198 10.9704 2.27765C11.0783 2.17857 11.1863 2.07972 11.2954 1.98193C11.386 1.90066 11.4756 1.81846 11.5649 1.73584C11.6162 1.68847 11.6675 1.6411 11.7188 1.59375C11.7314 1.58207 11.744 1.57039 11.7571 1.55835C11.7931 1.52517 11.8291 1.49206 11.8652 1.45898C11.8966 1.43016 11.8966 1.43016 11.9286 1.40076C11.9766 1.35938 11.9766 1.35938 12 1.35938Z" fill="#2C353A"/>
<path d="M0 1.35938C0.212947 1.5419 0.419901 1.73028 0.625763 1.92068C0.782996 2.06609 0.940655 2.21102 1.1001 2.354C1.21653 2.45851 1.33141 2.56463 1.44626 2.67087C1.51917 2.7383 1.5923 2.80548 1.66553 2.87256C1.67703 2.8831 1.68854 2.89364 1.7004 2.9045C1.72357 2.92572 1.74674 2.94694 1.76991 2.96815C1.81666 3.01096 1.86339 3.0538 1.91012 3.09664C1.93353 3.11811 1.95695 3.13957 1.98037 3.16104C2.03958 3.2153 2.09876 3.26958 2.1579 3.32391C2.26578 3.42299 2.37385 3.52184 2.48291 3.61963C2.59934 3.72414 2.71422 3.83026 2.82907 3.93649C2.93655 4.03589 3.04454 4.13472 3.15252 4.23357C3.18816 4.26623 3.22377 4.29893 3.25937 4.33163C3.38594 4.44788 3.51308 4.56345 3.64105 4.67816C3.68807 4.72074 3.7348 4.76357 3.78131 4.8067C3.80157 4.82549 3.80157 4.82549 3.82224 4.84466C3.84856 4.86911 3.87485 4.89359 3.9011 4.91812C3.95786 4.97085 4.01405 5.02044 4.07547 5.0679C4.09181 5.08159 4.10816 5.09527 4.125 5.10938C4.125 5.12484 4.125 5.14031 4.125 5.15625C4.13878 5.16181 4.15255 5.16737 4.16675 5.1731C4.34438 5.27567 4.4354 5.52698 4.489 5.71565C4.54544 5.97202 4.52083 6.28125 4.40625 6.51562C4.39676 6.53578 4.38728 6.55593 4.3775 6.57669C4.25018 6.80717 4.03739 6.97498 3.84375 7.14844C3.82154 7.16856 3.79934 7.18868 3.77646 7.20941C3.74004 7.24231 3.70351 7.27509 3.66687 7.30774C3.59628 7.37114 3.52664 7.43553 3.45703 7.5C3.36774 7.58267 3.27812 7.66489 3.1875 7.74609C3.07152 7.85007 2.95715 7.95573 2.8428 8.06149C2.73526 8.16095 2.6272 8.25985 2.51915 8.35878C2.4724 8.40159 2.42567 8.44443 2.37895 8.48726C2.35553 8.50873 2.33211 8.5302 2.30869 8.55166C2.24949 8.60592 2.1903 8.66021 2.13116 8.71454C2.02328 8.81362 1.91522 8.91247 1.80615 9.01025C1.68972 9.11476 1.57484 9.22088 1.45999 9.32712C1.35252 9.42651 1.24452 9.52534 1.13655 9.6242C1.1009 9.65685 1.06529 9.68955 1.02969 9.72226C0.921779 9.82137 0.813685 9.92025 0.70459 10.0181C0.614029 10.0993 0.524383 10.1815 0.435059 10.2642C0.383799 10.3115 0.332531 10.3589 0.28125 10.4062C0.268602 10.4179 0.255955 10.4296 0.242924 10.4416C0.20693 10.4748 0.17086 10.5079 0.134766 10.541C0.113859 10.5602 0.0929517 10.5794 0.0714111 10.5992C0.0234375 10.6406 0.0234375 10.6406 0 10.6406C0 7.57781 0 4.515 0 1.35938ZM1.00781 3.67969C1.00781 5.21109 1.00781 6.7425 1.00781 8.32031C1.16402 8.2045 1.16402 8.2045 1.30078 8.07568C1.36247 8.01253 1.42419 7.95149 1.49121 7.89404C1.5855 7.81315 1.676 7.72852 1.7666 7.64355C1.88352 7.53397 2.00126 7.42554 2.12073 7.31873C2.20389 7.24383 2.28599 7.1678 2.36815 7.09181C2.48871 6.9803 2.60973 6.86931 2.73085 6.75841C2.77761 6.71559 2.82434 6.67275 2.87108 6.6299C2.89441 6.60851 2.91776 6.58712 2.9411 6.56573C3.00154 6.51037 3.06189 6.45493 3.12213 6.39935C3.13455 6.38792 3.14697 6.37648 3.15976 6.3647C3.19411 6.33306 3.22843 6.30139 3.26276 6.26971C3.30942 6.22776 3.35605 6.18834 3.40494 6.14923C3.47307 6.09858 3.47307 6.09858 3.49658 6.02344C3.49045 5.9253 3.44563 5.90222 3.375 5.83594C3.35648 5.81715 3.33796 5.79835 3.31888 5.77899C3.21858 5.67756 3.11741 5.57949 3.00906 5.48676C2.93127 5.41825 2.85588 5.34727 2.78027 5.27637C2.66336 5.16678 2.54562 5.05835 2.42615 4.95154C2.34298 4.87664 2.26088 4.80062 2.17872 4.72462C2.0928 4.64515 2.00671 4.56587 1.92041 4.48682C1.9089 4.47628 1.8974 4.46574 1.88554 4.45488C1.86237 4.43366 1.8392 4.41244 1.81603 4.39122C1.76927 4.34841 1.72254 4.30557 1.67581 4.26272C1.65243 4.24129 1.62905 4.21987 1.60567 4.19844C1.54585 4.14363 1.48608 4.08877 1.42639 4.03381C1.23103 3.81352 1.23103 3.81352 1.00781 3.67969Z" fill="#2C353A"/>
<path d="M5.48438 0C5.82469 0 6.165 0 6.51562 0C6.51562 3.96 6.51562 7.92 6.51562 12C6.17531 12 5.835 12 5.48438 12C5.48438 8.04 5.48438 4.08 5.48438 0Z" fill="#2C353A"/>
</g>
<defs>
<clipPath id="clip0_3149_3408">
<rect width="12" height="12" fill="white"/>
</clipPath>
</defs>
</svg>
