<svg width="12" height="12" viewBox="0 0 12 12" fill="none" xmlns="http://www.w3.org/2000/svg">
<g clip-path="url(#clip0_3149_3417)">
<path d="M10.6406 12.0001C7.57781 12.0001 4.515 12.0001 1.35938 12.0001C1.51733 11.8158 1.51733 11.8158 1.57974 11.7497C1.59325 11.7353 1.60675 11.721 1.62067 11.7062C1.6345 11.6915 1.64834 11.6768 1.6626 11.6617C1.78837 11.528 1.78837 11.528 1.91016 11.3907C2.00255 11.2833 2.1002 11.1808 2.19707 11.0775C2.29201 10.976 2.38556 10.8736 2.47815 10.77C2.54118 10.7 2.60499 10.6308 2.66895 10.5616C2.68083 10.5488 2.69272 10.5359 2.70497 10.5227C2.71686 10.5098 2.72875 10.497 2.741 10.4837C2.8864 10.3265 3.03133 10.1688 3.17432 10.0094C3.27882 9.89296 3.38495 9.77807 3.49118 9.66322C3.59058 9.55575 3.6894 9.44775 3.78826 9.33978C3.82092 9.30414 3.85361 9.26853 3.88632 9.23293C3.98544 9.12501 4.08431 9.01692 4.18213 8.90782C4.28664 8.79139 4.39276 8.67651 4.49899 8.56166C4.56642 8.48875 4.6336 8.41562 4.70068 8.34239C4.71121 8.33092 4.72173 8.31945 4.73257 8.30763C4.78631 8.24901 4.83991 8.19028 4.89331 8.13136C4.95704 8.06112 5.02146 7.99154 5.08594 7.92198C5.11485 7.8899 5.11485 7.8899 5.14435 7.85716C5.33908 7.64937 5.58419 7.50628 5.8743 7.49223C6.10228 7.48813 6.30673 7.49173 6.51562 7.59386C6.53578 7.60334 6.55593 7.61283 6.57669 7.62261C6.80717 7.74993 6.97498 7.96272 7.14844 8.15636C7.17862 8.18967 7.17862 8.18967 7.20941 8.22365C7.24231 8.26007 7.27509 8.2966 7.30774 8.33324C7.37114 8.40383 7.43553 8.47346 7.5 8.54308C7.58267 8.63237 7.66489 8.72198 7.74609 8.81261C7.85007 8.92859 7.95573 9.04296 8.06149 9.1573C8.16089 9.26478 8.25972 9.37277 8.35857 9.48075C8.39123 9.51639 8.42393 9.552 8.45663 9.5876C8.55575 9.69552 8.65463 9.80361 8.75244 9.91271C8.85695 10.0291 8.96307 10.144 9.06931 10.2589C9.16877 10.3664 9.26767 10.4745 9.36659 10.5825C9.4094 10.6293 9.45224 10.676 9.49508 10.7227C9.51654 10.7461 9.53801 10.7696 9.55947 10.793C9.61373 10.8522 9.66802 10.9114 9.72235 10.9705C9.82143 11.0784 9.92028 11.1865 10.0181 11.2955C10.0993 11.3861 10.1815 11.4757 10.2642 11.565C10.3115 11.6163 10.3589 11.6676 10.4062 11.7189C10.4179 11.7315 10.4296 11.7442 10.4416 11.7572C10.4748 11.7932 10.5079 11.8292 10.541 11.8653C10.5698 11.8967 10.5698 11.8967 10.5992 11.9287C10.6406 11.9767 10.6406 11.9767 10.6406 12.0001Z" fill="#2C353A"/>
<path d="M10.6406 0C10.4581 0.212947 10.2697 0.419901 10.0793 0.625763C9.93391 0.782996 9.78898 0.940655 9.646 1.1001C9.54149 1.21653 9.43537 1.33141 9.32913 1.44626C9.2617 1.51917 9.19452 1.5923 9.12744 1.66553C9.1169 1.67703 9.10636 1.68854 9.0955 1.7004C9.07428 1.72357 9.05306 1.74674 9.03185 1.76991C8.98904 1.81666 8.9462 1.86339 8.90336 1.91012C8.88189 1.93353 8.86043 1.95695 8.83896 1.98037C8.7847 2.03958 8.73042 2.09876 8.67609 2.1579C8.57701 2.26578 8.47816 2.37385 8.38037 2.48291C8.27586 2.59934 8.16974 2.71422 8.06351 2.82907C7.96411 2.93655 7.86528 3.04454 7.76643 3.15252C7.73377 3.18816 7.70107 3.22377 7.66837 3.25937C7.55212 3.38594 7.43655 3.51308 7.32184 3.64105C7.27926 3.68807 7.23643 3.7348 7.1933 3.78131C7.17451 3.80157 7.17451 3.80157 7.15534 3.82224C7.13089 3.84856 7.10641 3.87485 7.08188 3.9011C7.02915 3.95786 6.97956 4.01405 6.9321 4.07547C6.91841 4.09181 6.90473 4.10816 6.89062 4.125C6.87516 4.125 6.85969 4.125 6.84375 4.125C6.83819 4.13878 6.83263 4.15255 6.8269 4.16675C6.72433 4.34438 6.47302 4.4354 6.28435 4.489C6.02798 4.54544 5.71875 4.52083 5.48438 4.40625C5.46422 4.39676 5.44407 4.38728 5.42331 4.3775C5.19283 4.25018 5.02502 4.03739 4.85156 3.84375C4.83144 3.82154 4.81132 3.79934 4.79059 3.77646C4.75769 3.74004 4.72491 3.70351 4.69226 3.66687C4.62886 3.59628 4.56447 3.52664 4.5 3.45703C4.41733 3.36774 4.33511 3.27812 4.25391 3.1875C4.14993 3.07152 4.04427 2.95715 3.93851 2.8428C3.83905 2.73526 3.74015 2.6272 3.64122 2.51915C3.59841 2.4724 3.55557 2.42567 3.51274 2.37895C3.49127 2.35553 3.4698 2.33211 3.44834 2.30869C3.39408 2.24949 3.33979 2.1903 3.28546 2.13116C3.18638 2.02328 3.08753 1.91522 2.98975 1.80615C2.88524 1.68972 2.77912 1.57484 2.67288 1.45999C2.57349 1.35252 2.47466 1.24452 2.3758 1.13655C2.34315 1.1009 2.31045 1.06529 2.27774 1.02969C2.17863 0.921779 2.07975 0.813685 1.98193 0.70459C1.90066 0.614029 1.81847 0.524383 1.73584 0.435059C1.68847 0.383799 1.6411 0.332531 1.59375 0.28125C1.58207 0.268602 1.57039 0.255955 1.55835 0.242924C1.52517 0.20693 1.49206 0.17086 1.45898 0.134766C1.43977 0.113859 1.42055 0.0929517 1.40076 0.0714111C1.35938 0.0234375 1.35938 0.0234375 1.35938 0C4.42219 0 7.485 0 10.6406 0ZM8.32031 1.00781C6.78891 1.00781 5.2575 1.00781 3.67969 1.00781C3.7955 1.16402 3.7955 1.16402 3.92432 1.30078C3.98747 1.36247 4.04851 1.42419 4.10596 1.49121C4.18685 1.5855 4.27148 1.676 4.35645 1.7666C4.46603 1.88352 4.57446 2.00126 4.68127 2.12073C4.75617 2.20389 4.8322 2.28599 4.90819 2.36815C5.0197 2.48871 5.13069 2.60973 5.24159 2.73085C5.28441 2.77761 5.32725 2.82434 5.3701 2.87108C5.39149 2.89441 5.41288 2.91776 5.43427 2.9411C5.48963 3.00154 5.54507 3.06189 5.60065 3.12213C5.61208 3.13455 5.62352 3.14697 5.6353 3.15976C5.66694 3.19411 5.69861 3.22843 5.73029 3.26276C5.77224 3.30942 5.81166 3.35605 5.85077 3.40494C5.90142 3.47307 5.90142 3.47307 5.97656 3.49658C6.0747 3.49045 6.09778 3.44563 6.16406 3.375C6.18285 3.35648 6.20165 3.33796 6.22101 3.31888C6.32244 3.21858 6.42051 3.11741 6.51324 3.00906C6.58175 2.93127 6.65273 2.85588 6.72363 2.78027C6.83322 2.66336 6.94165 2.54562 7.04846 2.42615C7.12336 2.34298 7.19938 2.26088 7.27538 2.17872C7.35485 2.0928 7.43413 2.00671 7.51318 1.92041C7.52372 1.9089 7.53426 1.8974 7.54512 1.88554C7.56634 1.86237 7.58756 1.8392 7.60878 1.81603C7.65159 1.76927 7.69443 1.72254 7.73728 1.67581C7.75871 1.65243 7.78013 1.62905 7.80156 1.60567C7.85637 1.54585 7.91123 1.48608 7.96619 1.42639C8.18648 1.23103 8.18648 1.23103 8.32031 1.00781Z" fill="#2C353A"/>
<path d="M12 5.48438C12 5.82469 12 6.165 12 6.51562C8.04 6.51562 4.08 6.51562 0 6.51562C0 6.17531 0 5.835 0 5.48438C3.96 5.48438 7.92 5.48438 12 5.48438Z" fill="#2C353A"/>
</g>
<defs>
<clipPath id="clip0_3149_3417">
<rect width="12" height="12" fill="white" transform="matrix(0 1 -1 0 12 0)"/>
</clipPath>
</defs>
</svg>
