<svg width="9" height="10" viewBox="0 0 9 10" fill="none" xmlns="http://www.w3.org/2000/svg">
<path d="M8.5 4.99943C8.5005 5.08629 8.47812 5.17175 8.43511 5.24722C8.39211 5.32269 8.32999 5.38551 8.255 5.42936L0.755002 9.92935C0.677817 9.97514 0.589745 9.99934 0.500002 9.99942C0.413956 10.0004 0.329265 9.97796 0.255002 9.93448C0.177507 9.89136 0.112981 9.82826 0.0681361 9.75175C0.0232908 9.67524 -0.000236307 9.58811 1.78937e-06 9.49942V0.499425C0.000200788 0.411246 0.0236901 0.324685 0.0680927 0.248501C0.112495 0.172317 0.176235 0.109215 0.252862 0.0655801C0.329488 0.0219456 0.416282 -0.000672304 0.504458 1.52191e-05C0.592635 0.000702742 0.679065 0.0246714 0.755002 0.0694954L8.255 4.5695C8.32999 4.61334 8.39211 4.67616 8.43511 4.75163C8.47812 4.8271 8.5005 4.91256 8.5 4.99943Z" fill="white"/>
</svg>
