<svg width="14" height="14" viewBox="0 0 14 14" fill="none" xmlns="http://www.w3.org/2000/svg">
<path d="M7 9.5C6.50555 9.5 6.0222 9.35338 5.61107 9.07867C5.19995 8.80397 4.87952 8.41352 4.6903 7.95671C4.50108 7.49989 4.45157 6.99723 4.54804 6.51227C4.6445 6.02732 4.8826 5.58186 5.23223 5.23223C5.58186 4.8826 6.02732 4.6445 6.51227 4.54804C6.99723 4.45157 7.49989 4.50108 7.95671 4.6903C8.41352 4.87952 8.80397 5.19995 9.07867 5.61107C9.35338 6.0222 9.5 6.50555 9.5 7C9.49922 7.6628 9.23558 8.29823 8.7669 8.7669C8.29823 9.23558 7.6628 9.49922 7 9.5ZM7 5.5C6.70333 5.5 6.41332 5.58797 6.16664 5.7528C5.91997 5.91762 5.72771 6.15189 5.61418 6.42597C5.50065 6.70006 5.47094 7.00166 5.52882 7.29264C5.5867 7.58361 5.72956 7.85088 5.93934 8.06066C6.14912 8.27044 6.41639 8.4133 6.70736 8.47118C6.99834 8.52906 7.29994 8.49935 7.57403 8.38582C7.84811 8.27229 8.08238 8.08003 8.2472 7.83335C8.41203 7.58668 8.5 7.29667 8.5 7C8.49956 6.60231 8.34139 6.22103 8.06018 5.93982C7.77897 5.65861 7.39769 5.50044 7 5.5Z" fill="#2C353A"/>
<path d="M7 14C6.86739 14 6.74021 13.9473 6.64645 13.8536C6.55268 13.7598 6.5 13.6326 6.5 13.5V11C6.5 10.8674 6.55268 10.7402 6.64645 10.6464C6.74021 10.5527 6.86739 10.5 7 10.5C7.13261 10.5 7.25979 10.5527 7.35355 10.6464C7.44732 10.7402 7.5 10.8674 7.5 11V13.5C7.5 13.6326 7.44732 13.7598 7.35355 13.8536C7.25979 13.9473 7.13261 14 7 14Z" fill="#2C353A"/>
<path d="M7 3.5C6.86739 3.5 6.74021 3.44732 6.64645 3.35355C6.55268 3.25979 6.5 3.13261 6.5 3V0.5C6.5 0.367392 6.55268 0.240215 6.64645 0.146447C6.74021 0.0526784 6.86739 0 7 0C7.13261 0 7.25979 0.0526784 7.35355 0.146447C7.44732 0.240215 7.5 0.367392 7.5 0.5V3C7.5 3.13261 7.44732 3.25979 7.35355 3.35355C7.25979 3.44732 7.13261 3.5 7 3.5Z" fill="#2C353A"/>
<path d="M3 7.5H0.5C0.367392 7.5 0.240215 7.44732 0.146447 7.35355C0.0526784 7.25979 0 7.13261 0 7C0 6.86739 0.0526784 6.74021 0.146447 6.64645C0.240215 6.55268 0.367392 6.5 0.5 6.5H3C3.13261 6.5 3.25979 6.55268 3.35355 6.64645C3.44732 6.74021 3.5 6.86739 3.5 7C3.5 7.13261 3.44732 7.25979 3.35355 7.35355C3.25979 7.44732 3.13261 7.5 3 7.5Z" fill="#2C353A"/>
<path d="M13.5 7.5H11C10.8674 7.5 10.7402 7.44732 10.6464 7.35355C10.5527 7.25979 10.5 7.13261 10.5 7C10.5 6.86739 10.5527 6.74021 10.6464 6.64645C10.7402 6.55268 10.8674 6.5 11 6.5H13.5C13.6326 6.5 13.7598 6.55268 13.8536 6.64645C13.9473 6.74021 14 6.86739 14 7C14 7.13261 13.9473 7.25979 13.8536 7.35355C13.7598 7.44732 13.6326 7.5 13.5 7.5Z" fill="#2C353A"/>
<path d="M11.5962 12.0962C11.5305 12.0963 11.4655 12.0834 11.4048 12.0582C11.3442 12.0331 11.2891 11.9962 11.2427 11.9497L9.475 10.1821C9.42857 10.1357 9.39174 10.0806 9.36661 10.0199C9.34148 9.95926 9.32854 9.89424 9.32854 9.82858C9.32854 9.76291 9.34148 9.69789 9.36661 9.63722C9.39174 9.57656 9.42857 9.52143 9.475 9.475C9.52143 9.42857 9.57656 9.39174 9.63722 9.36661C9.69789 9.34148 9.76291 9.32854 9.82858 9.32854C9.89424 9.32854 9.95926 9.34148 10.0199 9.36661C10.0806 9.39174 10.1357 9.42857 10.1821 9.475L11.9497 11.2426C12.0196 11.3125 12.0672 11.4016 12.0865 11.4986C12.1058 11.5956 12.0959 11.6961 12.058 11.7874C12.0202 11.8788 11.9561 11.9569 11.8739 12.0118C11.7917 12.0667 11.6951 12.0962 11.5962 12.0962Z" fill="#2C353A"/>
<path d="M4.17165 4.6714C4.10597 4.67148 4.04093 4.65857 3.98026 4.63343C3.91958 4.60829 3.86447 4.57141 3.8181 4.5249L2.0503 2.7573C1.95922 2.663 1.90882 2.5367 1.90996 2.4056C1.9111 2.2745 1.96369 2.14909 2.05639 2.05639C2.14909 1.96369 2.2745 1.9111 2.4056 1.90996C2.5367 1.90882 2.663 1.95922 2.7573 2.0503L4.525 3.81785C4.59492 3.88777 4.64254 3.97686 4.66183 4.07384C4.68113 4.17083 4.67123 4.27136 4.63339 4.36272C4.59556 4.45408 4.53148 4.53217 4.44926 4.58711C4.36705 4.64206 4.27054 4.67139 4.17165 4.6714Z" fill="#2C353A"/>
<path d="M2.4038 12.0962C2.30492 12.0962 2.20828 12.0668 2.12607 12.0119C2.04387 11.957 1.9798 11.8789 1.94196 11.7875C1.90413 11.6962 1.89422 11.5957 1.91351 11.4987C1.93279 11.4017 1.9804 11.3126 2.0503 11.2427L3.8181 9.475C3.86427 9.42742 3.91945 9.3895 3.98041 9.36344C4.04138 9.33738 4.10691 9.3237 4.17321 9.32321C4.23951 9.32272 4.30525 9.33542 4.36659 9.36057C4.42794 9.38572 4.48367 9.42282 4.53054 9.46971C4.57742 9.5166 4.6145 9.57234 4.63963 9.6337C4.66475 9.69505 4.67743 9.76079 4.67691 9.82709C4.6764 9.89339 4.6627 9.95892 4.63662 10.0199C4.61054 10.0808 4.5726 10.136 4.525 10.1821L2.7573 11.9497C2.71094 11.9962 2.65584 12.0331 2.59517 12.0582C2.53451 12.0834 2.46947 12.0963 2.4038 12.0962Z" fill="#2C353A"/>
<path d="M9.8286 4.67145C9.72972 4.67144 9.63306 4.64211 9.55084 4.58716C9.46863 4.53222 9.40455 4.45413 9.36671 4.36277C9.32887 4.27141 9.31898 4.17088 9.33827 4.07389C9.35756 3.97691 9.40518 3.88782 9.4751 3.8179L11.2427 2.05035C11.2888 2.00259 11.344 1.9645 11.405 1.9383C11.466 1.91209 11.5316 1.8983 11.598 1.89772C11.6644 1.89715 11.7302 1.9098 11.7917 1.93494C11.8531 1.96008 11.909 1.99721 11.9559 2.04415C12.0028 2.0911 12.04 2.14692 12.0651 2.20837C12.0903 2.26982 12.1029 2.33566 12.1023 2.40205C12.1018 2.46844 12.088 2.53405 12.0618 2.59505C12.0355 2.65605 11.9975 2.71123 11.9497 2.75735L10.1822 4.52505C10.1358 4.57153 10.0807 4.6084 10.02 4.63352C9.95931 4.65864 9.89427 4.67153 9.8286 4.67145Z" fill="#2C353A"/>
</svg>
