<svg width="12" height="12" viewBox="0 0 12 12" fill="none" xmlns="http://www.w3.org/2000/svg">
<path d="M10.6462 0.14624C10.8411 -0.0487348 11.1612 -0.0487348 11.3561 0.14624C11.551 0.341263 11.5511 0.661258 11.3561 0.856201L0.856148 11.3562C0.756189 11.4511 0.630641 11.5007 0.500679 11.5007C0.370898 11.5006 0.246024 11.451 0.146187 11.3562C-0.0487742 11.1612 -0.0486863 10.8413 0.146187 10.6462L1.55634 9.23608C-0.0136297 7.09114 0.171198 4.05109 2.11103 2.11108C4.05103 0.171114 7.09101 -0.0136086 9.23603 1.5564L10.6462 0.14624ZM10.6511 3.06128C11.9959 5.19126 11.7412 8.04142 9.8913 9.89136C9.35131 10.4263 8.73089 10.8255 8.07099 11.0955C7.41102 11.3604 6.70563 11.4958 6.00068 11.4958C4.97585 11.4958 3.95591 11.2161 3.06611 10.6462L3.79072 9.92065C5.50564 10.8856 7.72132 10.6413 9.18134 9.1814C10.0613 8.30139 10.4958 7.15073 10.4958 6.00073C10.4958 5.23581 10.3065 4.47569 9.92158 3.79077L10.6511 3.06128Z" fill="#2C353A"/>
</svg>
