<svg width="32" height="32" viewBox="0 0 32 32" fill="none" xmlns="http://www.w3.org/2000/svg">
<path d="M27.3302 3.68976C24.2702 3.61975 19.9002 6.40973 14.3702 11.9697C12.4701 13.8798 11.0802 15.4898 10.6601 15.9797C8.11016 16.1898 6.09027 18.3298 6.09027 20.9298C6.09027 22.9598 5.20013 24.8597 3.65021 26.1498C3.35016 26.4097 3.22016 26.8098 3.33026 27.1898C3.44012 27.5698 3.76019 27.8497 4.15021 27.9097C4.73017 27.9898 5.32025 28.0397 5.90021 28.0397C7.52021 28.0397 9.11017 27.7197 10.5903 27.1097C12.0702 26.4998 13.4301 25.5997 14.5803 24.4498C15.4301 23.6097 15.9301 22.5198 16.0202 21.3398C16.2201 21.1697 16.6102 20.8298 17.1302 20.3698C17.8802 19.6998 18.9002 18.7498 20.0302 17.6298C25.5903 12.0997 28.3802 7.73975 28.3102 4.66974C28.3002 4.12976 27.8702 3.69977 27.3302 3.68976ZM13.1701 23.0397C11.3802 24.8298 8.97014 25.8798 6.47014 26.0198C7.51018 24.5498 8.09026 22.7798 8.09026 20.9298C8.09026 19.2897 9.4301 17.9598 11.0702 17.9598C11.8501 17.9598 12.6202 18.2798 13.1701 18.8298C13.7301 19.3898 14.0402 20.1398 14.0402 20.9298C14.0402 21.7298 13.7301 22.4697 13.1701 23.0397ZM15.6601 18.9998C15.4101 18.4097 15.0502 17.8698 14.5903 17.4097C14.1302 16.9598 13.5903 16.5997 12.9902 16.3497C13.5402 15.7397 14.3002 14.9097 15.2001 13.9797C15.7201 14.3798 16.2302 14.8098 16.7101 15.2897C17.1901 15.7698 17.6202 16.2798 18.0202 16.7997C17.0903 17.6898 16.2702 18.4498 15.6601 18.9998ZM19.4501 15.3798C19.0502 14.8597 18.6001 14.3597 18.1202 13.8798C17.6402 13.3998 17.1402 12.9498 16.6202 12.5497C20.5402 8.72973 23.8501 6.40973 26.1701 5.82977C25.5903 8.14978 23.2702 11.4598 19.4501 15.3798Z" fill="#25C2C7"/>
</svg>
