<svg width="32" height="32" viewBox="0 0 32 32" fill="none" xmlns="http://www.w3.org/2000/svg">
<path d="M20.5601 5.91016C20.8201 5.91016 21.0803 6.0102 21.2603 6.2002L28.3306 13.2705C28.72 13.6605 28.7202 14.3005 28.3306 14.6904L16.3101 26.71C16.13 26.89 15.8699 27 15.6099 27H8.54053C8.27057 27 8.02049 26.8899 7.83057 26.71L4.29053 23.1699C3.90052 22.78 3.90052 22.1498 4.29053 21.7598L19.8501 6.2002C20.0401 6.01023 20.2901 5.91016 20.5601 5.91016ZM25.6265 25C26.1791 25 26.6264 25.4478 26.6265 26C26.6265 26.5522 26.1792 27 25.6265 27H20.6265C20.0739 26.9997 19.6265 26.5521 19.6265 26C19.6266 25.448 20.074 25.0003 20.6265 25H25.6265ZM6.40967 22.46L8.94971 25H15.1899L22.6802 17.5205L17.02 11.8604L6.40967 22.46ZM18.4302 10.4404L24.0903 16.1006L26.2104 13.9805L20.5601 8.32031L18.4302 10.4404Z" fill="#25C2C7"/>
</svg>
