<svg width="14" height="15" viewBox="0 0 14 15" fill="none" xmlns="http://www.w3.org/2000/svg">
<path d="M7.00227 14.9988C8.85878 14.9988 10.6393 14.2613 11.952 12.9485C13.2648 11.6358 14.0023 9.8553 14.0023 7.99878C14.0023 7.86617 13.9496 7.73899 13.8558 7.64523C13.7621 7.55146 13.6349 7.49878 13.5023 7.49878C13.3697 7.49878 13.2425 7.55146 13.1487 7.64523C13.0549 7.73899 13.0023 7.86617 13.0023 7.99878C13.002 9.37081 12.5315 10.7013 11.6692 11.7685C10.8069 12.8357 9.60489 13.5751 8.26351 13.8635C6.92214 14.1519 5.52245 13.9719 4.29771 13.3534C3.07298 12.735 2.0972 11.7155 1.53301 10.4648C0.968828 9.21415 0.850317 7.80791 1.19724 6.48046C1.54415 5.15302 2.33554 3.98457 3.4395 3.16987C4.54345 2.35517 5.89328 1.94343 7.264 2.00328C8.63472 2.06313 9.94352 2.59096 10.9723 3.49878L8.50227 3.49878C8.36966 3.49878 8.24248 3.55146 8.14871 3.64523C8.05494 3.73899 8.00227 3.86617 8.00227 3.99878C8.00227 4.13139 8.05494 4.25856 8.14871 4.35233C8.24248 4.4461 8.36966 4.49878 8.50227 4.49878L12.0023 4.49878C12.1349 4.49878 12.2621 4.4461 12.3558 4.35233C12.4496 4.25857 12.5023 4.13139 12.5023 3.99878L12.5023 0.49878C12.5023 0.366172 12.4496 0.238995 12.3558 0.145226C12.2621 0.0514583 12.1349 -0.00122017 12.0023 -0.00122018C11.8697 -0.00122018 11.7425 0.0514582 11.6487 0.145226C11.5549 0.238995 11.5023 0.366172 11.5023 0.49878L11.5023 2.63878C10.6404 1.91483 9.61666 1.4094 8.51787 1.16533C7.41908 0.92126 6.27763 0.945759 5.19032 1.23675C4.10302 1.52774 3.10191 2.07663 2.2719 2.8369C1.44189 3.59716 0.807449 4.54636 0.42238 5.60401C0.0373108 6.66167 -0.0870318 7.79659 0.0598959 8.91253C0.206824 10.0285 0.620688 11.0925 1.2664 12.0145C1.9121 12.9364 2.77061 13.689 3.76912 14.2086C4.76763 14.7281 5.87669 14.9991 7.00227 14.9988Z" fill="#2C353A"/>
</svg>
