<svg width="16" height="16" viewBox="0 0 16 16" fill="none" xmlns="http://www.w3.org/2000/svg">
<path d="M14 8.00009C14 8.1327 13.9473 8.25988 13.8536 8.35365C13.7598 8.44741 13.6326 8.50009 13.5 8.50009H3.705L7.355 12.1451C7.40186 12.1916 7.43906 12.2469 7.46445 12.3078C7.48983 12.3687 7.5029 12.4341 7.5029 12.5001C7.5029 12.5661 7.48983 12.6315 7.46445 12.6924C7.43906 12.7533 7.40186 12.8086 7.355 12.8551C7.30852 12.902 7.25322 12.9392 7.19229 12.9645C7.13136 12.9899 7.06601 13.003 7 13.003C6.93399 13.003 6.86864 12.9899 6.80771 12.9645C6.74678 12.9392 6.69148 12.902 6.645 12.8551L2.145 8.35509C2.09814 8.30861 2.06094 8.25331 2.03555 8.19238C2.01017 8.13145 1.9971 8.0661 1.9971 8.00009C1.9971 7.93409 2.01017 7.86873 2.03555 7.8078C2.06094 7.74687 2.09814 7.69157 2.145 7.64509L6.645 3.14509C6.69162 3.09847 6.74696 3.06149 6.80788 3.03626C6.86879 3.01103 6.93407 2.99805 7 2.99805C7.06593 2.99805 7.13121 3.01103 7.19212 3.03626C7.25304 3.06149 7.30838 3.09847 7.355 3.14509C7.40162 3.19171 7.4386 3.24706 7.46383 3.30797C7.48906 3.36888 7.50205 3.43416 7.50205 3.50009C7.50205 3.56602 7.48906 3.63131 7.46383 3.69222C7.4386 3.75313 7.40162 3.80847 7.355 3.85509L3.705 7.50009H13.5C13.6326 7.50009 13.7598 7.55277 13.8536 7.64654C13.9473 7.74031 14 7.86748 14 8.00009Z" fill="#2C353A"/>
</svg>
