<svg width="16" height="16" viewBox="0 0 16 16" fill="none" xmlns="http://www.w3.org/2000/svg">
<g clip-path="url(#clip0_4307_8656)">
<path d="M13.855 8.35509L9.355 12.8551C9.30852 12.902 9.25322 12.9392 9.19229 12.9645C9.13136 12.9899 9.06601 13.003 9 13.003C8.93399 13.003 8.86864 12.9899 8.80771 12.9645C8.74678 12.9392 8.69148 12.902 8.645 12.8551C8.59814 12.8086 8.56094 12.7533 8.53555 12.6924C8.51017 12.6315 8.4971 12.5661 8.4971 12.5001C8.4971 12.4341 8.51017 12.3687 8.53555 12.3078C8.56094 12.2469 8.59814 12.1916 8.645 12.1451L12.295 8.50009H2.5C2.36739 8.50009 2.24021 8.44741 2.14645 8.35365C2.05268 8.25988 2 8.1327 2 8.00009C2 7.86748 2.05268 7.74031 2.14645 7.64654C2.24021 7.55277 2.36739 7.50009 2.5 7.50009H12.295L8.645 3.85509C8.55085 3.76094 8.49795 3.63324 8.49795 3.50009C8.49795 3.36694 8.55085 3.23924 8.645 3.14509C8.73915 3.05094 8.86685 2.99805 9 2.99805C9.13315 2.99805 9.26085 3.05094 9.355 3.14509L13.855 7.64509C13.9019 7.69157 13.9391 7.74687 13.9644 7.8078C13.9898 7.86873 14.0029 7.93409 14.0029 8.00009C14.0029 8.0661 13.9898 8.13145 13.9644 8.19238C13.9391 8.25331 13.9019 8.30861 13.855 8.35509V8.35509Z" fill="#2C353A"/>
</g>
<defs>
<clipPath id="clip0_4307_8656">
<rect width="16" height="16" fill="white"/>
</clipPath>
</defs>
</svg>
