<svg width="16" height="16" viewBox="0 0 16 16" fill="none" xmlns="http://www.w3.org/2000/svg">
<path d="M12.855 9.355L8.355 13.855C8.30852 13.9019 8.25322 13.9391 8.19229 13.9644C8.13136 13.9898 8.06601 14.0029 8 14.0029C7.934 14.0029 7.86864 13.9898 7.80771 13.9644C7.74678 13.9391 7.69148 13.9019 7.645 13.855L3.145 9.355C3.05085 9.26085 2.99796 9.13315 2.99796 9C2.99796 8.86685 3.05085 8.73915 3.145 8.645C3.23915 8.55085 3.36685 8.49795 3.5 8.49795C3.63315 8.49795 3.76085 8.55085 3.855 8.645L7.5 12.295V2.5C7.5 2.36739 7.55268 2.24021 7.64645 2.14645C7.74022 2.05268 7.86739 2 8 2C8.13261 2 8.25979 2.05268 8.35355 2.14645C8.44732 2.24021 8.5 2.36739 8.5 2.5V12.295L12.145 8.645C12.1916 8.59838 12.247 8.5614 12.3079 8.53617C12.3688 8.51094 12.4341 8.49795 12.5 8.49795C12.5659 8.49795 12.6312 8.51094 12.6921 8.53617C12.753 8.5614 12.8084 8.59838 12.855 8.645C12.9016 8.69162 12.9386 8.74696 12.9638 8.80788C12.9891 8.86879 13.002 8.93407 13.002 9C13.002 9.06593 12.9891 9.13121 12.9638 9.19212C12.9386 9.25304 12.9016 9.30838 12.855 9.355V9.355Z" fill="#2C353A"/>
</svg>
