<svg width="16" height="16" viewBox="0 0 16 16" fill="none" xmlns="http://www.w3.org/2000/svg">
<path d="M12.855 7.35497C12.8085 7.40183 12.7532 7.43903 12.6923 7.46442C12.6314 7.4898 12.566 7.50287 12.5 7.50287C12.434 7.50287 12.3686 7.4898 12.3077 7.46442C12.2468 7.43903 12.1915 7.40183 12.145 7.35497L8.5 3.70497V13.5C8.5 13.6326 8.44732 13.7598 8.35355 13.8535C8.25979 13.9473 8.13261 14 8 14C7.86739 14 7.74022 13.9473 7.64645 13.8535C7.55268 13.7598 7.5 13.6326 7.5 13.5V3.70497L3.855 7.35497C3.76085 7.44912 3.63315 7.50202 3.5 7.50202C3.36685 7.50202 3.23915 7.44912 3.145 7.35497C3.05085 7.26082 2.99796 7.13312 2.99796 6.99997C2.99796 6.86682 3.05085 6.73912 3.145 6.64497L7.645 2.14497C7.69148 2.09811 7.74678 2.06091 7.80771 2.03552C7.86864 2.01014 7.934 1.99707 8 1.99707C8.06601 1.99707 8.13136 2.01014 8.19229 2.03552C8.25322 2.06091 8.30852 2.09811 8.355 2.14497L12.855 6.64497C12.9019 6.69145 12.9391 6.74675 12.9644 6.80768C12.9898 6.86861 13.0029 6.93396 13.0029 6.99997C13.0029 7.06598 12.9898 7.13133 12.9644 7.19226C12.9391 7.25319 12.9019 7.30849 12.855 7.35497Z" fill="#2C353A"/>
</svg>
