<svg width="14" height="14" viewBox="0 0 14 14" fill="none" xmlns="http://www.w3.org/2000/svg">
<path d="M5.63443 0.134766C6.99221 -0.135254 8.39938 0.0034286 9.67838 0.533203C10.9575 1.06302 12.0508 1.96018 12.82 3.11133C13.5891 4.26242 13.9997 5.61562 13.9997 7C13.9997 8.85652 13.2626 10.6374 11.9499 11.9502C10.6371 13.2629 8.85618 14 6.99966 14C5.61528 14 4.26208 13.5894 3.11099 12.8203C1.95985 12.0511 1.06268 10.9578 0.532867 9.67871C0.00309291 8.39972 -0.135589 6.99254 0.13443 5.63477C0.404526 4.2769 1.07148 3.02975 2.05045 2.05078C3.02941 1.07181 4.27656 0.404862 5.63443 0.134766ZM6.99966 1C5.81301 1.00001 4.65333 1.35245 3.66666 2.01172C2.67996 2.67101 1.91082 3.60774 1.4567 4.7041C1.00258 5.80045 0.88339 7.00702 1.1149 8.1709C1.34644 9.33468 1.91843 10.4041 2.75748 11.2432C3.59643 12.0819 4.66523 12.6532 5.82877 12.8848C6.99262 13.1163 8.19923 12.9971 9.29556 12.543C10.3919 12.0888 11.3296 11.3197 11.9889 10.333C12.648 9.34642 12.9997 8.18649 12.9997 7C12.9996 5.40892 12.3678 3.88298 11.2428 2.75781C10.1176 1.63259 8.59096 1 6.99966 1ZM6.99966 2.5C7.13225 2.5 7.25942 2.55275 7.35318 2.64648C7.44694 2.74024 7.49965 2.86741 7.49966 3V6.79492L9.85513 9.14551C9.90179 9.1919 9.9392 9.24688 9.96451 9.30762C9.98989 9.36853 10.0026 9.43401 10.0026 9.5C10.0026 9.56598 9.98987 9.63148 9.96451 9.69238C9.93912 9.75331 9.902 9.80899 9.85513 9.85547C9.8085 9.90172 9.75283 9.93801 9.69205 9.96289C9.63113 9.98777 9.56547 10.0004 9.49966 10C9.43403 10.0004 9.36904 9.98766 9.30826 9.96289C9.24753 9.93809 9.1918 9.90161 9.14517 9.85547L6.64517 7.35547C6.59891 7.30882 6.56165 7.25318 6.53677 7.19238C6.51189 7.13146 6.49928 7.0658 6.49966 7V3C6.49968 2.86741 6.5524 2.74024 6.64615 2.64648C6.7399 2.55273 6.86708 2.50002 6.99966 2.5Z" fill="#2C353A"/>
</svg>
