<svg width="11" height="14" viewBox="0 0 11 14" fill="none" xmlns="http://www.w3.org/2000/svg">
<path d="M6.5 0C6.5658 -0.000380427 6.63146 0.0122271 6.69238 0.0371094C6.75316 0.061989 6.80884 0.0992577 6.85547 0.145508L7.70508 1H10.5C10.6326 1 10.7597 1.05272 10.8535 1.14648C10.9473 1.24025 11 1.3674 11 1.5V3.5C11 3.6326 10.9473 3.75975 10.8535 3.85352C10.7597 3.94728 10.6326 4 10.5 4H10V13C10 13.1326 9.94728 13.2597 9.85352 13.3535C9.75975 13.4473 9.63261 13.5 9.5 13.5H1.5C1.36739 13.5 1.24025 13.4473 1.14648 13.3535C1.05272 13.2597 1 13.1326 1 13V4H0.5C0.367392 4 0.240253 3.94728 0.146484 3.85352C0.052724 3.75975 0 3.6326 0 3.5V1.5C6.63337e-06 1.3674 0.0527221 1.24025 0.146484 1.14648C0.240251 1.05272 0.367398 1 0.5 1H3.29492L4.14453 0.145508C4.19116 0.0992578 4.24684 0.061989 4.30762 0.0371094C4.36854 0.0122271 4.4342 -0.000380427 4.5 0H6.5ZM2 12.5H9V4H2V12.5ZM4 5C4.1326 5 4.25975 5.05272 4.35352 5.14648C4.44728 5.24025 4.5 5.3674 4.5 5.5V11C4.5 11.1326 4.44728 11.2597 4.35352 11.3535C4.25975 11.4473 4.13261 11.5 4 11.5C3.86739 11.5 3.74025 11.4473 3.64648 11.3535C3.55272 11.2597 3.5 11.1326 3.5 11V5.5C3.5 5.3674 3.55272 5.24025 3.64648 5.14648C3.74025 5.05272 3.8674 5 4 5ZM7 5C7.1326 5 7.25975 5.05272 7.35352 5.14648C7.44728 5.24025 7.5 5.3674 7.5 5.5V11C7.5 11.1326 7.44728 11.2597 7.35352 11.3535C7.25975 11.4473 7.13261 11.5 7 11.5C6.86739 11.5 6.74025 11.4473 6.64648 11.3535C6.55272 11.2597 6.5 11.1326 6.5 11V5.5C6.5 5.3674 6.55272 5.24025 6.64648 5.14648C6.74025 5.05272 6.8674 5 7 5ZM3.85547 1.85547C3.80884 1.90171 3.75315 1.93801 3.69238 1.96289C3.63146 1.98777 3.5658 2.00038 3.5 2H1V3H10V2H7.5C7.4342 2.00038 7.36854 1.98777 7.30762 1.96289C7.24685 1.93801 7.19116 1.90171 7.14453 1.85547L6.29492 1H4.70508L3.85547 1.85547Z" fill="#2C353A"/>
</svg>
